ply
format ascii 1.0
comment VCGLIB generated
element vertex 65
property float x
property float y
property float z
property float nx
property float ny
property float nz
property uchar red
property uchar green
property uchar blue
property uchar alpha
property float texture_u
property float texture_v
element face 62
property list uchar int vertex_indices
end_header
0 -1 -1 1.949707e-06 -0.5032898 -0.8641177 255 255 0 255 0.25 0.49
0 1 5.563626e-08 1.317076e-06 1 1.665737e-06 255 255 0 255 0.25 0.25
0.19509 -1 -0.9807851 0.1685801 -0.5032905 -0.8475137 255 255 0 255 0.296822 0.485388
0.3826829 -1 -0.9238801 0.3306821 -0.5032893 -0.7983415 255 255 0 255 0.341844 0.471731
0.5555698 -1 -0.8314701 0.4800776 -0.5032903 -0.7184876 255 255 0 255 0.383337 0.449553
0.7071068 -0.9999998 -0.7071071 0.6110241 -0.5032885 -0.611024 255 255 0 255 0.419706 0.419706
0.8314698 -1 -0.5555701 0.7184882 -0.5032891 -0.480078 255 255 0 255 0.449553 0.383337
0.9238798 -1 -0.382683 0.7983415 -0.5032894 -0.3306823 255 255 0 255 0.471731 0.341844
0.9807848 -1 -0.1950901 0.8475134 -0.503291 -0.1685802 255 255 0 255 0.485388 0.296822
0.9999998 -1 -5.563626e-08 0.8641179 -0.5032896 -6.126615e-08 255 255 0 255 0.49 0.25
0.9807848 -1 0.1950899 0.8475136 -0.5032906 0.1685801 255 255 0 255 0.485388 0.203178
0.9238798 -1 0.382683 0.7983411 -0.50329 0.3306823 255 255 0 255 0.471731 0.158156
0.8314698 -0.9999999 0.5555699 0.7184878 -0.5032898 0.4800779 255 255 0 255 0.449553 0.116663
0.7071068 -1 0.7071069 0.6110235 -0.5032895 0.6110237 255 255 0 255 0.419706 0.080294
0.5555698 -1 0.8314699 0.4800775 -0.5032902 0.7184877 255 255 0 255 0.383337 0.050447
0.3826829 -1 0.9238799 0.3306821 -0.5032896 0.7983414 255 255 0 255 0.341844 0.028269
0.19509 -1 0.9807849 0.1685804 -0.5032907 0.8475136 255 255 0 255 0.296822 0.014612
0 -1 1 2.082214e-07 -0.5032897 0.8641178 255 255 0 255 0.25 0.01
-0.1950909 -1 0.9807849 -0.1685822 -0.5032898 0.8475137 255 255 0 255 0.203178 0.014612
-0.3826839 -1 0.9238789 -0.3306839 -0.5032903 0.7983403 255 255 0 255 0.158156 0.028269
-0.5555708 -1 0.8314689 -0.4800791 -0.5032893 0.7184873 255 255 0 255 0.116663 0.050447
-0.7071068 -1 0.7071059 -0.6110231 -0.5032906 0.6110232 255 255 0 255 0.080294 0.080294
-0.8314698 -0.9999999 0.5555699 -0.7184872 -0.5032894 0.4800791 255 255 0 255 0.050447 0.116663
-0.9238798 -1 0.382683 -0.7983413 -0.5032901 0.3306816 255 255 0 255 0.028269 0.158156
-0.9807848 -1 0.1950889 -0.8475136 -0.5032909 0.1685795 255 255 0 255 0.014611 0.203179
-0.9999998 -1 -1.055636e-06 -0.8641179 -0.5032895 -8.965999e-08 255 255 0 255 0.01 0.25
-0.9807848 -1 -0.1950911 -0.8475135 -0.5032901 -0.1685822 255 255 0 255 0.014612 0.296822
-0.9238788 -1 -0.382684 -0.7983403 -0.5032901 -0.3306841 255 255 0 255 0.028269 0.341844
-0.8314688 -1 -0.5555711 -0.7184879 -0.5032896 -0.4800779 255 255 0 255 0.050447 0.383337
-0.7071058 -0.9999998 -0.7071081 -0.6110227 -0.503289 -0.6110251 255 255 0 255 0.080295 0.419706
-0.5555688 -1 -0.8314701 -0.4800761 -0.5032913 -0.718488 255 255 0 255 0.116663 0.449553
-0.3826819 -1 -0.9238801 -0.3306839 -0.50329 -0.7983404 255 255 0 255 0.158156 0.471731
0.9807848 -1 -0.1950901 0.8475134 -0.503291 -0.1685802 255 255 0 255 0.985388 0.296822
0.19509 -1 0.9807849 0.1685804 -0.5032907 0.8475136 255 255 0 255 0.796822 0.014612
-0.9807848 -1 0.1950889 -0.8475136 -0.5032909 0.1685795 255 255 0 255 0.514611 0.203179
-0.195089 -1 -0.9807861 -0.1685804 -0.5032892 -0.8475145 255 255 0 255 0.203179 0.485389
-0.195089 -1 -0.9807861 -0.1685804 -0.5032892 -0.8475145 255 255 0 255 0.703179 0.485389
0 -1 -1 1.949707e-06 -0.5032898 -0.8641177 255 255 0 255 0.75 0.49
0.19509 -1 -0.9807851 0.1685801 -0.5032905 -0.8475137 255 255 0 255 0.796822 0.485388
0.3826829 -1 -0.9238801 0.3306821 -0.5032893 -0.7983415 255 255 0 255 0.841844 0.471731
0.5555698 -1 -0.8314701 0.4800776 -0.5032903 -0.7184876 255 255 0 255 0.883337 0.449553
0.7071068 -0.9999998 -0.7071071 0.6110241 -0.5032885 -0.611024 255 255 0 255 0.919706 0.419706
0.8314698 -1 -0.5555701 0.7184882 -0.5032891 -0.480078 255 255 0 255 0.949553 0.383337
0.9238798 -1 -0.382683 0.7983415 -0.5032894 -0.3306823 255 255 0 255 0.971731 0.341844
0.9999998 -1 -5.563626e-08 0.8641179 -0.5032896 -6.126615e-08 255 255 0 255 0.99 0.25
0.9807848 -1 0.1950899 0.8475136 -0.5032906 0.1685801 255 255 0 255 0.985388 0.203178
0.9238798 -1 0.382683 0.7983411 -0.50329 0.3306823 255 255 0 255 0.971731 0.158156
0.8314698 -0.9999999 0.5555699 0.7184878 -0.5032898 0.4800779 255 255 0 255 0.949553 0.116663
0.7071068 -1 0.7071069 0.6110235 -0.5032895 0.6110237 255 255 0 255 0.919706 0.080294
0.5555698 -1 0.8314699 0.4800775 -0.5032902 0.7184877 255 255 0 255 0.883337 0.050447
0.3826829 -1 0.9238799 0.3306821 -0.5032896 0.7983414 255 255 0 255 0.841844 0.028269
0 -1 1 2.082214e-07 -0.5032897 0.8641178 255 255 0 255 0.75 0.01
-0.1950909 -1 0.9807849 -0.1685822 -0.5032898 0.8475137 255 255 0 255 0.703178 0.014612
-0.3826839 -1 0.9238789 -0.3306839 -0.5032903 0.7983403 255 255 0 255 0.658156 0.028269
-0.5555708 -1 0.8314689 -0.4800791 -0.5032893 0.7184873 255 255 0 255 0.616663 0.050447
-0.7071068 -1 0.7071059 -0.6110231 -0.5032906 0.6110232 255 255 0 255 0.580294 0.080294
-0.8314698 -0.9999999 0.5555699 -0.7184872 -0.5032894 0.4800791 255 255 0 255 0.550447 0.116663
-0.9238798 -1 0.382683 -0.7983413 -0.5032901 0.3306816 255 255 0 255 0.528269 0.158156
-0.9999998 -1 -1.055636e-06 -0.8641179 -0.5032895 -8.965999e-08 255 255 0 255 0.51 0.25
-0.9807848 -1 -0.1950911 -0.8475135 -0.5032901 -0.1685822 255 255 0 255 0.514612 0.296822
-0.9238788 -1 -0.382684 -0.7983403 -0.5032901 -0.3306841 255 255 0 255 0.528269 0.341844
-0.8314688 -1 -0.5555711 -0.7184879 -0.5032896 -0.4800779 255 255 0 255 0.550447 0.383337
-0.7071058 -0.9999998 -0.7071081 -0.6110227 -0.503289 -0.6110251 255 255 0 255 0.580295 0.419706
-0.5555688 -1 -0.8314701 -0.4800761 -0.5032913 -0.718488 255 255 0 255 0.616663 0.449553
-0.3826819 -1 -0.9238801 -0.3306839 -0.50329 -0.7983404 255 255 0 255 0.658156 0.471731
3 0 1 2 
3 2 1 3 
3 3 1 4 
3 4 1 5 
3 5 1 6 
3 6 1 7 
3 7 1 8 
3 8 1 9 
3 9 1 10 
3 10 1 11 
3 11 1 12 
3 12 1 13 
3 13 1 14 
3 14 1 15 
3 15 1 16 
3 16 1 17 
3 17 1 18 
3 18 1 19 
3 19 1 20 
3 20 1 21 
3 21 1 22 
3 22 1 23 
3 23 1 24 
3 24 1 25 
3 25 1 26 
3 26 1 27 
3 27 1 28 
3 28 1 29 
3 29 1 30 
3 30 1 31 
3 32 33 34 
3 31 1 35 
3 35 1 0 
3 36 37 38 
3 38 39 40 
3 40 41 42 
3 42 43 40 
3 43 32 40 
3 32 44 45 
3 45 46 32 
3 46 47 32 
3 47 48 33 
3 48 49 33 
3 49 50 33 
3 33 51 52 
3 52 53 54 
3 54 55 56 
3 56 57 34 
3 34 58 59 
3 59 60 61 
3 61 62 36 
3 62 63 36 
3 63 64 36 
3 36 38 40 
3 33 52 34 
3 52 54 34 
3 54 56 34 
3 34 59 36 
3 59 61 36 
3 36 40 32 
3 32 47 33 
3 36 32 34 
