ply
format ascii 1.0
comment VCGLIB generated
element vertex 16
property float x
property float y
property float z
property float nx
property float ny
property float nz
property uchar red
property uchar green
property uchar blue
property uchar alpha
element face 18
property list uchar int vertex_indices
end_header
0.4999999 2.185569e-08 0.5 0 1 -4.371139e-08 255 255 0 255 
0.1666666 2.185569e-08 0.5 0 1 -4.371139e-08 255 255 0 255 
-0.1666666 2.185569e-08 0.5 0 1 -4.371139e-08 255 255 0 255 
-0.4999999 2.185569e-08 0.5 0 1 -4.371139e-08 255 255 0 255 
0.4999999 7.285233e-09 0.1666667 0 1 -4.371139e-08 255 255 0 255 
0.1666666 7.285233e-09 0.1666667 0 1 -4.371139e-08 255 255 0 255 
-0.1666666 7.285233e-09 0.1666667 0 1 -4.371139e-08 255 255 0 255 
-0.4999999 7.285233e-09 0.1666667 0 1 -4.371139e-08 255 255 0 255 
0.4999999 -7.285235e-09 -0.1666667 0 1 -4.371139e-08 255 255 0 255 
0.1666666 -7.285235e-09 -0.1666667 0 1 -4.371139e-08 255 255 0 255 
-0.1666666 -7.285235e-09 -0.1666667 0 1 -4.371139e-08 255 255 0 255 
-0.4999999 -7.285235e-09 -0.1666667 0 1 -4.371139e-08 255 255 0 255 
0.4999999 -2.185569e-08 -0.5 0 1 -4.371139e-08 255 255 0 255 
0.1666666 -2.185569e-08 -0.5 0 1 -4.371139e-08 255 255 0 255 
-0.1666666 -2.185569e-08 -0.5 0 1 -4.371139e-08 255 255 0 255 
-0.4999999 -2.185569e-08 -0.5 0 1 -4.371139e-08 255 255 0 255 
3 5 1 0 
3 0 4 5 
3 6 2 1 
3 1 5 6 
3 7 3 2 
3 2 6 7 
3 9 5 4 
3 4 8 9 
3 10 6 5 
3 5 9 10 
3 11 7 6 
3 6 10 11 
3 13 9 8 
3 8 12 13 
3 14 10 9 
3 9 13 14 
3 15 11 10 
3 10 14 15 
